{"asset":{"version":"2.0","generator":"Blockbench 3.4.2 glTF exporter"},"scenes":[{"nodes":[0,1,2,3,4,5,6],"name":"blockbench_export"}],"scene":0,"nodes":[{"rotation":[0,0.19509032201612825,0,0.9807852804032304],"translation":[5,-0.5,5],"name":"a0add30e-d546-8773-c8dc-b2ed4331d811","mesh":0},{"rotation":[0,-0.19509032201612825,0,0.9807852804032304],"translation":[10,-0.5,5.5],"name":"6f02d179-b2c9-e38f-7b6f-3d484a2302b7","mesh":1},{"rotation":[0,0.19509032201612825,0,0.9807852804032304],"translation":[11,-0.5,10.5],"name":"34768794-eb63-0dac-3501-8afd31d9447a","mesh":2},{"rotation":[0,-0.3826834323650898,0,0.9238795325112867],"translation":[6,-0.5,10],"name":"f4d2a8ce-048e-5e98-fc5f-50086d10c2c7","mesh":3},{"translation":[8,0,8],"name":"830b943d-e5f2-eea2-92dd-09240518549d","mesh":4},{"rotation":[0,-0.3826834323650898,0,0.9238795325112867],"translation":[8,8,8],"name":"615678dc-f0d2-a099-f506-16deba9cac63","mesh":5},{"rotation":[0,0.3826834323650898,0,0.9238795325112867],"translation":[8,8,8],"name":"6a244e66-0fab-1418-0929-1c3529eb19e6","mesh":6}],"bufferViews":[{"buffer":0,"byteOffset":0,"byteLength":432,"target":34962,"byteStride":12},{"buffer":0,"byteOffset":432,"byteLength":432,"target":34962,"byteStride":12},{"buffer":0,"byteOffset":864,"byteLength":288,"target":34962,"byteStride":8},{"buffer":0,"byteOffset":1152,"byteLength":12,"target":34963},{"buffer":0,"byteOffset":1164,"byteLength":12,"target":34963},{"buffer":0,"byteOffset":1176,"byteLength":12,"target":34963},{"buffer":0,"byteOffset":1188,"byteLength":12,"target":34963},{"buffer":0,"byteOffset":1200,"byteLength":12,"target":34963},{"buffer":0,"byteOffset":1212,"byteLength":12,"target":34963},{"buffer":0,"byteOffset":1224,"byteLength":432,"target":34962,"byteStride":12},{"buffer":0,"byteOffset":1656,"byteLength":432,"target":34962,"byteStride":12},{"buffer":0,"byteOffset":2088,"byteLength":288,"target":34962,"byteStride":8},{"buffer":0,"byteOffset":2376,"byteLength":12,"target":34963},{"buffer":0,"byteOffset":2388,"byteLength":12,"target":34963},{"buffer":0,"byteOffset":2400,"byteLength":12,"target":34963},{"buffer":0,"byteOffset":2412,"byteLength":12,"target":34963},{"buffer":0,"byteOffset":2424,"byteLength":12,"target":34963},{"buffer":0,"byteOffset":2436,"byteLength":12,"target":34963},{"buffer":0,"byteOffset":2448,"byteLength":432,"target":34962,"byteStride":12},{"buffer":0,"byteOffset":2880,"byteLength":432,"target":34962,"byteStride":12},{"buffer":0,"byteOffset":3312,"byteLength":288,"target":34962,"byteStride":8},{"buffer":0,"byteOffset":3600,"byteLength":12,"target":34963},{"buffer":0,"byteOffset":3612,"byteLength":12,"target":34963},{"buffer":0,"byteOffset":3624,"byteLength":12,"target":34963},{"buffer":0,"byteOffset":3636,"byteLength":12,"target":34963},{"buffer":0,"byteOffset":3648,"byteLength":12,"target":34963},{"buffer":0,"byteOffset":3660,"byteLength":12,"target":34963},{"buffer":0,"byteOffset":3672,"byteLength":432,"target":34962,"byteStride":12},{"buffer":0,"byteOffset":4104,"byteLength":432,"target":34962,"byteStride":12},{"buffer":0,"byteOffset":4536,"byteLength":288,"target":34962,"byteStride":8},{"buffer":0,"byteOffset":4824,"byteLength":12,"target":34963},{"buffer":0,"byteOffset":4836,"byteLength":12,"target":34963},{"buffer":0,"byteOffset":4848,"byteLength":12,"target":34963},{"buffer":0,"byteOffset":4860,"byteLength":12,"target":34963},{"buffer":0,"byteOffset":4872,"byteLength":12,"target":34963},{"buffer":0,"byteOffset":4884,"byteLength":12,"target":34963},{"buffer":0,"byteOffset":4896,"byteLength":432,"target":34962,"byteStride":12},{"buffer":0,"byteOffset":5328,"byteLength":432,"target":34962,"byteStride":12},{"buffer":0,"byteOffset":5760,"byteLength":288,"target":34962,"byteStride":8},{"buffer":0,"byteOffset":6048,"byteLength":12,"target":34963},{"buffer":0,"byteOffset":6060,"byteLength":12,"target":34963},{"buffer":0,"byteOffset":6072,"byteLength":12,"target":34963},{"buffer":0,"byteOffset":6084,"byteLength":12,"target":34963},{"buffer":0,"byteOffset":6096,"byteLength":12,"target":34963},{"buffer":0,"byteOffset":6108,"byteLength":12,"target":34963},{"buffer":0,"byteOffset":6120,"byteLength":432,"target":34962,"byteStride":12},{"buffer":0,"byteOffset":6552,"byteLength":432,"target":34962,"byteStride":12},{"buffer":0,"byteOffset":6984,"byteLength":288,"target":34962,"byteStride":8},{"buffer":0,"byteOffset":7272,"byteLength":12,"target":34963},{"buffer":0,"byteOffset":7284,"byteLength":12,"target":34963},{"buffer":0,"byteOffset":7296,"byteLength":12,"target":34963},{"buffer":0,"byteOffset":7308,"byteLength":12,"target":34963},{"buffer":0,"byteOffset":7320,"byteLength":12,"target":34963},{"buffer":0,"byteOffset":7332,"byteLength":12,"target":34963},{"buffer":0,"byteOffset":7344,"byteLength":432,"target":34962,"byteStride":12},{"buffer":0,"byteOffset":7776,"byteLength":432,"target":34962,"byteStride":12},{"buffer":0,"byteOffset":8208,"byteLength":288,"target":34962,"byteStride":8},{"buffer":0,"byteOffset":8496,"byteLength":12,"target":34963},{"buffer":0,"byteOffset":8508,"byteLength":12,"target":34963},{"buffer":0,"byteOffset":8520,"byteLength":12,"target":34963},{"buffer":0,"byteOffset":8532,"byteLength":12,"target":34963},{"buffer":0,"byteOffset":8544,"byteLength":12,"target":34963},{"buffer":0,"byteOffset":8556,"byteLength":12,"target":34963}],"buffers":[{"byteLength":8568,"uri":"data:application/octet-stream;base64,"}],"accessors":[{"bufferView":0,"componentType":5126,"count":36,"max":[1,0.5,1],"min":[-1,-1,-1],"type":"VEC3"},{"bufferView":1,"componentType":5126,"count":36,"max":[1,1,1],"min":[-1,-1,-1],"type":"VEC3"},{"bufferView":2,"componentType":5126,"count":36,"max":[0.125,1],"min":[0,0.5],"type":"VEC2"},{"bufferView":3,"componentType":5123,"count":6,"max":[5],"min":[0],"type":"SCALAR"},{"bufferView":4,"componentType":5123,"count":6,"max":[11],"min":[6],"type":"SCALAR"},{"bufferView":5,"componentType":5123,"count":6,"max":[17],"min":[12],"type":"SCALAR"},{"bufferView":6,"componentType":5123,"count":6,"max":[23],"min":[18],"type":"SCALAR"},{"bufferView":7,"componentType":5123,"count":6,"max":[29],"min":[24],"type":"SCALAR"},{"bufferView":8,"componentType":5123,"count":6,"max":[35],"min":[30],"type":"SCALAR"},{"bufferView":9,"componentType":5126,"count":36,"max":[1,0.5,1],"min":[-1,-1,-1],"type":"VEC3"},{"bufferView":10,"componentType":5126,"count":36,"max":[1,1,1],"min":[-1,-1,-1],"type":"VEC3"},{"bufferView":11,"componentType":5126,"count":36,"max":[0.125,1],"min":[0,0.5],"type":"VEC2"},{"bufferView":12,"componentType":5123,"count":6,"max":[5],"min":[0],"type":"SCALAR"},{"bufferView":13,"componentType":5123,"count":6,"max":[11],"min":[6],"type":"SCALAR"},{"bufferView":14,"componentType":5123,"count":6,"max":[17],"min":[12],"type":"SCALAR"},{"bufferView":15,"componentType":5123,"count":6,"max":[23],"min":[18],"type":"SCALAR"},{"bufferView":16,"componentType":5123,"count":6,"max":[29],"min":[24],"type":"SCALAR"},{"bufferView":17,"componentType":5123,"count":6,"max":[35],"min":[30],"type":"SCALAR"},{"bufferView":18,"componentType":5126,"count":36,"max":[1,0.5,1],"min":[-1,-1,-1],"type":"VEC3"},{"bufferView":19,"componentType":5126,"count":36,"max":[1,1,1],"min":[-1,-1,-1],"type":"VEC3"},{"bufferView":20,"componentType":5126,"count":36,"max":[0.125,1],"min":[0,0.5],"type":"VEC2"},{"bufferView":21,"componentType":5123,"count":6,"max":[5],"min":[0],"type":"SCALAR"},{"bufferView":22,"componentType":5123,"count":6,"max":[11],"min":[6],"type":"SCALAR"},{"bufferView":23,"componentType":5123,"count":6,"max":[17],"min":[12],"type":"SCALAR"},{"bufferView":24,"componentType":5123,"count":6,"max":[23],"min":[18],"type":"SCALAR"},{"bufferView":25,"componentType":5123,"count":6,"max":[29],"min":[24],"type":"SCALAR"},{"bufferView":26,"componentType":5123,"count":6,"max":[35],"min":[30],"type":"SCALAR"},{"bufferView":27,"componentType":5126,"count":36,"max":[1,0.5,1],"min":[-1,-1,-1],"type":"VEC3"},{"bufferView":28,"componentType":5126,"count":36,"max":[1,1,1],"min":[-1,-1,-1],"type":"VEC3"},{"bufferView":29,"componentType":5126,"count":36,"max":[0.125,1],"min":[0,0.5],"type":"VEC2"},{"bufferView":30,"componentType":5123,"count":6,"max":[5],"min":[0],"type":"SCALAR"},{"bufferView":31,"componentType":5123,"count":6,"max":[11],"min":[6],"type":"SCALAR"},{"bufferView":32,"componentType":5123,"count":6,"max":[17],"min":[12],"type":"SCALAR"},{"bufferView":33,"componentType":5123,"count":6,"max":[23],"min":[18],"type":"SCALAR"},{"bufferView":34,"componentType":5123,"count":6,"max":[29],"min":[24],"type":"SCALAR"},{"bufferView":35,"componentType":5123,"count":6,"max":[35],"min":[30],"type":"SCALAR"},{"bufferView":36,"componentType":5126,"count":36,"max":[1.5,1,1.5],"min":[-1.5,-1.5,-1.5],"type":"VEC3"},{"bufferView":37,"componentType":5126,"count":36,"max":[1,1,1],"min":[-1,-1,-1],"type":"VEC3"},{"bufferView":38,"componentType":5126,"count":36,"max":[0.1875,1],"min":[0,0.6875],"type":"VEC2"},{"bufferView":39,"componentType":5123,"count":6,"max":[5],"min":[0],"type":"SCALAR"},{"bufferView":40,"componentType":5123,"count":6,"max":[11],"min":[6],"type":"SCALAR"},{"bufferView":41,"componentType":5123,"count":6,"max":[17],"min":[12],"type":"SCALAR"},{"bufferView":42,"componentType":5123,"count":6,"max":[23],"min":[18],"type":"SCALAR"},{"bufferView":43,"componentType":5123,"count":6,"max":[29],"min":[24],"type":"SCALAR"},{"bufferView":44,"componentType":5123,"count":6,"max":[35],"min":[30],"type":"SCALAR"},{"bufferView":45,"componentType":5126,"count":36,"max":[0.0010000000474974513,8,6.5],"min":[0,-8,-6.5],"type":"VEC3"},{"bufferView":46,"componentType":5126,"count":36,"max":[1,1,1],"min":[-1,-1,-1],"type":"VEC3"},{"bufferView":47,"componentType":5126,"count":36,"max":[1,1],"min":[0,0],"type":"VEC2"},{"bufferView":48,"componentType":5123,"count":6,"max":[5],"min":[0],"type":"SCALAR"},{"bufferView":49,"componentType":5123,"count":6,"max":[11],"min":[6],"type":"SCALAR"},{"bufferView":50,"componentType":5123,"count":6,"max":[17],"min":[12],"type":"SCALAR"},{"bufferView":51,"componentType":5123,"count":6,"max":[23],"min":[18],"type":"SCALAR"},{"bufferView":52,"componentType":5123,"count":6,"max":[29],"min":[24],"type":"SCALAR"},{"bufferView":53,"componentType":5123,"count":6,"max":[35],"min":[30],"type":"SCALAR"},{"bufferView":54,"componentType":5126,"count":36,"max":[0.0010000000474974513,8,6.5],"min":[0,-8,-6.5],"type":"VEC3"},{"bufferView":55,"componentType":5126,"count":36,"max":[1,1,1],"min":[-1,-1,-1],"type":"VEC3"},{"bufferView":56,"componentType":5126,"count":36,"max":[1,1],"min":[0,0],"type":"VEC2"},{"bufferView":57,"componentType":5123,"count":6,"max":[5],"min":[0],"type":"SCALAR"},{"bufferView":58,"componentType":5123,"count":6,"max":[11],"min":[6],"type":"SCALAR"},{"bufferView":59,"componentType":5123,"count":6,"max":[17],"min":[12],"type":"SCALAR"},{"bufferView":60,"componentType":5123,"count":6,"max":[23],"min":[18],"type":"SCALAR"},{"bufferView":61,"componentType":5123,"count":6,"max":[29],"min":[24],"type":"SCALAR"},{"bufferView":62,"componentType":5123,"count":6,"max":[35],"min":[30],"type":"SCALAR"}],"materials":[{"pbrMetallicRoughness":{"metallicFactor":0,"roughnessFactor":1,"baseColorTexture":{"index":0}},"alphaMode":"MASK","alphaCutoff":0.2},{"pbrMetallicRoughness":{"metallicFactor":0,"roughnessFactor":1,"baseColorTexture":{"index":1}},"alphaMode":"MASK","alphaCutoff":0.2}],"textures":[{"sampler":0,"source":0},{"sampler":1,"source":1}],"samplers":[{"magFilter":9728,"minFilter":9728,"wrapS":33071,"wrapT":33071},{"magFilter":9728,"minFilter":9728,"wrapS":33071,"wrapT":33071}],"images":[{"mimeType":"image/png","uri":"data:image/png;base64,"},{"mimeType":"image/png","uri":"data:image/png;base64,"}],"meshes":[{"primitives":[{"mode":4,"attributes":{"POSITION":0,"NORMAL":1,"TEXCOORD_0":2},"indices":3,"material":0},{"mode":4,"attributes":{"POSITION":0,"NORMAL":1,"TEXCOORD_0":2},"indices":4,"material":0},{"mode":4,"attributes":{"POSITION":0,"NORMAL":1,"TEXCOORD_0":2},"indices":5,"material":0},{"mode":4,"attributes":{"POSITION":0,"NORMAL":1,"TEXCOORD_0":2},"indices":6,"material":1},{"mode":4,"attributes":{"POSITION":0,"NORMAL":1,"TEXCOORD_0":2},"indices":7,"material":0},{"mode":4,"attributes":{"POSITION":0,"NORMAL":1,"TEXCOORD_0":2},"indices":8,"material":0}]},{"primitives":[{"mode":4,"attributes":{"POSITION":9,"NORMAL":10,"TEXCOORD_0":11},"indices":12,"material":0},{"mode":4,"attributes":{"POSITION":9,"NORMAL":10,"TEXCOORD_0":11},"indices":13,"material":0},{"mode":4,"attributes":{"POSITION":9,"NORMAL":10,"TEXCOORD_0":11},"indices":14,"material":0},{"mode":4,"attributes":{"POSITION":9,"NORMAL":10,"TEXCOORD_0":11},"indices":15,"material":1},{"mode":4,"attributes":{"POSITION":9,"NORMAL":10,"TEXCOORD_0":11},"indices":16,"material":0},{"mode":4,"attributes":{"POSITION":9,"NORMAL":10,"TEXCOORD_0":11},"indices":17,"material":0}]},{"primitives":[{"mode":4,"attributes":{"POSITION":18,"NORMAL":19,"TEXCOORD_0":20},"indices":21,"material":0},{"mode":4,"attributes":{"POSITION":18,"NORMAL":19,"TEXCOORD_0":20},"indices":22,"material":0},{"mode":4,"attributes":{"POSITION":18,"NORMAL":19,"TEXCOORD_0":20},"indices":23,"material":0},{"mode":4,"attributes":{"POSITION":18,"NORMAL":19,"TEXCOORD_0":20},"indices":24,"material":1},{"mode":4,"attributes":{"POSITION":18,"NORMAL":19,"TEXCOORD_0":20},"indices":25,"material":0},{"mode":4,"attributes":{"POSITION":18,"NORMAL":19,"TEXCOORD_0":20},"indices":26,"material":0}]},{"primitives":[{"mode":4,"attributes":{"POSITION":27,"NORMAL":28,"TEXCOORD_0":29},"indices":30,"material":0},{"mode":4,"attributes":{"POSITION":27,"NORMAL":28,"TEXCOORD_0":29},"indices":31,"material":0},{"mode":4,"attributes":{"POSITION":27,"NORMAL":28,"TEXCOORD_0":29},"indices":32,"material":0},{"mode":4,"attributes":{"POSITION":27,"NORMAL":28,"TEXCOORD_0":29},"indices":33,"material":1},{"mode":4,"attributes":{"POSITION":27,"NORMAL":28,"TEXCOORD_0":29},"indices":34,"material":0},{"mode":4,"attributes":{"POSITION":27,"NORMAL":28,"TEXCOORD_0":29},"indices":35,"material":0}]},{"primitives":[{"mode":4,"attributes":{"POSITION":36,"NORMAL":37,"TEXCOORD_0":38},"indices":39,"material":0},{"mode":4,"attributes":{"POSITION":36,"NORMAL":37,"TEXCOORD_0":38},"indices":40,"material":0},{"mode":4,"attributes":{"POSITION":36,"NORMAL":37,"TEXCOORD_0":38},"indices":41,"material":0},{"mode":4,"attributes":{"POSITION":36,"NORMAL":37,"TEXCOORD_0":38},"indices":42,"material":1},{"mode":4,"attributes":{"POSITION":36,"NORMAL":37,"TEXCOORD_0":38},"indices":43,"material":0},{"mode":4,"attributes":{"POSITION":36,"NORMAL":37,"TEXCOORD_0":38},"indices":44,"material":0}]},{"primitives":[{"mode":4,"attributes":{"POSITION":45,"NORMAL":46,"TEXCOORD_0":47},"indices":48,"material":0},{"mode":4,"attributes":{"POSITION":45,"NORMAL":46,"TEXCOORD_0":47},"indices":49,"material":0},{"mode":4,"attributes":{"POSITION":45,"NORMAL":46,"TEXCOORD_0":47},"indices":50,"material":1},{"mode":4,"attributes":{"POSITION":45,"NORMAL":46,"TEXCOORD_0":47},"indices":51,"material":1},{"mode":4,"attributes":{"POSITION":45,"NORMAL":46,"TEXCOORD_0":47},"indices":52,"material":1},{"mode":4,"attributes":{"POSITION":45,"NORMAL":46,"TEXCOORD_0":47},"indices":53,"material":1}]},{"primitives":[{"mode":4,"attributes":{"POSITION":54,"NORMAL":55,"TEXCOORD_0":56},"indices":57,"material":0},{"mode":4,"attributes":{"POSITION":54,"NORMAL":55,"TEXCOORD_0":56},"indices":58,"material":0},{"mode":4,"attributes":{"POSITION":54,"NORMAL":55,"TEXCOORD_0":56},"indices":59,"material":1},{"mode":4,"attributes":{"POSITION":54,"NORMAL":55,"TEXCOORD_0":56},"indices":60,"material":1},{"mode":4,"attributes":{"POSITION":54,"NORMAL":55,"TEXCOORD_0":56},"indices":61,"material":1},{"mode":4,"attributes":{"POSITION":54,"NORMAL":55,"TEXCOORD_0":56},"indices":62,"material":1}]}]}