<svg xmlns="http://www.w3.org/2000/svg" height="3725.333" width="3214.947"><g transform="matrix(.133333 0 0 -.133333 0 3725.3333)"><path d="M12045.703 24348.478L2718.306 27640.4V7339.493l9327.397 3017.704v13991.282" fill="#fff"/><g fill="#141519"><path d="M11821.795 24358.568l9684.53 3291.937v-20300.9l-9684.53 3017.688v13991.274"/><path d="M299.602 3785.704l11522.22 3840.51V24360.84L299.602 20520.345V3785.704"/></g><g fill="#fff"><path d="M17072.044 3532.898L18705.04 846.3l861.153 2495.702-2494.15 190.896M4217.4 18592.4c-61.202 60.084 79.705-491.036 275.793-689.337 347.707-350.84 619.297-396.02 763.906-401.84 319.994-12.8 714.896 79.763 949.398 178.04 226.9 96.763 624.5 299.722 775 595.834 31.905 63.344 119.004 169.656 64.3 432.233-41.5 202.027-170.098 272.707-326.9 261.53-156.8-10.596-631.5-137.17-861.1-207.85-229.693-69.632-702.797-213.67-908.993-258.385-205.695-44.597-659.2 20.727-731.395 89.777M10031 12003.35c-90.808 32.97-1969.405 811.133-2235.703 938.644-217.903 104.803-752.203 330.676-1003.6 433.296 708.098 1091.8 1155.095 1915.715 1214.604 2041.26l877.094 1786.458c16.998 91.484 38.297 429.475 21.8 509.824-16.496 81.878-291.298-75.546-664.398-202.074-373.7-125.982-1083.905-587.88-1358.206-645.74-275.294-57.423-1155.095-390.72-1605.3-540.064-450.195-149.454-1301.798-409.388-1652.102-503.93-350.796-94.65-656.996-102.074-853.196-161.572 0 0 26.103-274.9 78.198-357.204 51.506-82.423 237.106-284.388 452.903-340.83 215.796-56.768 573-34.06 735.697 3.166 162.6 37.773 444.3 175.436 482.106 235.48 38.2 61.135-19.705 249.344 44.596 306.222 64.902 56.332 922.3 256.768 1246 354.475 323.7 99.563 1562.8 526.3 1730.803 504.584-53.2-176.528-1049.9-2150.758-1370.902-2739.73-321.102-588.863-2186.293-3179.806-2583.4-3636.4-301.397-347.106-1031.798-1235.302-1284.8-1435.706 63.8-17.598 516.1 21.2 598.503 72.205 513.492 316.298 1368.795 1381 1644.198 1705.3 818.6 960.008 1537.8 1968.412 2108.095 2833.802h.6c111.1-46.288 1009.397-778.164 1243.796-940.4 234.4-162.117 1159.396-678.164 1359.8-763.862 200.403-86.68 970.598-441.702 1003-321.506 32.402 121.18-139.3 829.8-230.196 864.3"/><g fill-rule="evenodd"><path d="M5690 2219.995c179.996-109.994 350-200.003 540-290 380-190 809.993-390.002 1220-540C8009.986 1180 8569.98 1009.998 9129.976 880c310.008-70 650.004-130 979.997-180 30 0 919.998-110 1100.005-110h900c350 30 680.06 50 1029.958 100 280.03 40 590.005 90 890 160 220.032 50 450.046 100 670.078 170 209.94 60 449.934 139.994 679.947 220 150.053 49.995 309.974 119.997 470.008 179.996 129.978 60 290.012 130 439.953 190 180.108 80.006 390.047 190 590.005 290 160.034 80.006 340.03 179.996 510.045 279.997 129.978 70.002 429.972 300.004 590.005 300.004 179.996 0 299.993-160 299.993-300.004 0-290-390.047-380-570.043-510-189.977-130-420-230-619.95-339.996-400.028-210-810.038-389.998-1199.973-539.998-510.045-190-1069.995-370-1570.058-490-189.977-40-379.954-90-569.93-120C13649.972 160 12609.92 0 12320.02 0h-1320.05c-350 30-719.995 70-1069.995 120-309.997 50-640 110-949.997 180-239.995 50-499.996 120-729.998 190-399.995 110-789.997 250-1169.996 400-689.984 260-1410 599.996-2089.992 1049.997-119.997 79.994-130 160-130 249.998 0 149.997 109.994 290 290 290 160 0 480-230.002 540-260.002m6430.005 22180.03V7600.004c-9.996-50-30.003-100.006-70.003-150.002-19.992-30.003-59.992-70.003-89.995-80-249.993-100.006-11510-3880-11660-3880-120 0-230 80-290 209.994 0 10-10 20.007-10 40v16809.94c20 50.056 30 120.074 70 159.998 80 110.093 220 130.055 310 159.998C550 20929.968 11640.003 24650 11800 24650c100.006 0 319.996-70.018 319.996-249.978zm-610.004-16550.026L610 4220.005v16079.952L11509.993 23930V7849.997"/><path d="M21809.993 27619.97V7389.99c-9.942-230-170.04-330-320.024-330-129.93 0-1069.947 320.007-1230.045 370.008l-3779.92 1170-840 270.007c-240 69.987-500.006 149.985-739.998 230l-3230 1019.998c-40.007 9.993-140.01 150.002-140.01 180V24430c20.004 50.052 40.007 110.046 90.008 149.985 79.998 89.99 3510 1230.045 4860 1680 359.997 129.93 4869.924 1680 5009.966 1680 179.982 0 320.024-129.93 320.024-320.024zM21199.94 7769.992l-9069.94 2820.002v13549.988l9069.94 3080.084V7769.992"/></g><path d="M24112.004 3532.9L11994.977 7394.978l50.688 16812.967 12066.34-3840.45V3532.9"/></g><path d="M17289.83 19408.084l1561.106-472.897L21694.974 8684.99l-1603.565 486.5-576.048 2104.293-3313.74 1004.397-712.607-1714.196-1603.964 486.606zm713.67-2713.602l-1189.364-2874.65 2186.534-662.748-997.17 3537.4" fill="#141519" fill-rule="evenodd"/></g></svg>